<?xml version="1.0" standalone="no"?>
<!DOCTYPE svg PUBLIC "-//W3C//DTD SVG 20010904//EN"
 "http://www.w3.org/TR/2001/REC-SVG-20010904/DTD/svg10.dtd">
<svg version="1.0" xmlns="http://www.w3.org/2000/svg"
 width="626.000000pt" height="626.000000pt" viewBox="0 0 626.000000 626.000000"
 preserveAspectRatio="xMidYMid meet">
<metadata>
Created by potrace 1.16, written by Peter Selinger 2001-2019
</metadata>
<g transform="translate(0.000000,626.000000) scale(0.100000,-0.100000)"
fill="#000000" stroke="none">
<path d="M2925 6199 c-180 -56 -337 -104 -505 -154 -197 -59 -261 -78 -475
-143 -126 -39 -246 -75 -265 -80 -19 -5 -141 -42 -270 -81 -129 -39 -289 -88
-355 -108 -66 -19 -201 -60 -300 -90 -99 -30 -191 -58 -205 -62 l-25 -8 0
-1089 c0 -995 2 -1100 18 -1219 65 -464 276 -977 591 -1433 59 -85 243 -326
281 -368 5 -7 35 -40 65 -75 71 -83 394 -406 490 -490 232 -204 435 -354 790
-584 36 -23 83 -52 105 -65 41 -23 57 -32 188 -106 l77 -44 78 44 c130 74 146
83 187 106 115 66 389 249 530 355 251 188 386 305 620 540 252 252 408 436
581 687 313 452 524 964 592 1433 15 108 17 230 17 1214 l0 1094 -25 8 c-14 4
-72 22 -130 39 -58 18 -139 42 -180 55 -41 13 -129 39 -195 59 -66 19 -226 68
-355 107 -129 39 -251 76 -270 81 -19 5 -93 28 -165 50 -71 22 -157 48 -190
58 -132 38 -618 185 -932 281 -89 27 -166 48 -170 48 -4 -1 -93 -28 -198 -60z
m205 -523 l0 -173 -111 -7 c-489 -31 -925 -221 -1268 -551 -164 -158 -284
-318 -381 -506 -43 -83 -120 -266 -120 -284 0 -3 62 -5 138 -5 l137 0 52 110
51 110 270 0 269 0 -22 -77 c-13 -43 -26 -93 -30 -111 l-7 -33 137 3 137 3 32
105 31 105 263 3 262 2 0 -110 0 -110 80 0 80 0 0 -130 0 -130 -25 0 c-40 0
-81 -26 -98 -62 -8 -18 -38 -100 -66 -183 -28 -82 -54 -157 -57 -165 -3 -8
-30 68 -59 169 -29 101 -62 195 -73 210 -15 21 -29 27 -70 29 -45 3 -56 -1
-78 -23 -18 -19 -23 -31 -19 -48 36 -118 169 -488 184 -507 28 -38 60 -51 115
-47 75 7 91 31 172 260 l69 197 3 -340 2 -340 50 0 50 0 0 -110 0 -110 293 2
292 3 34 108 35 107 133 0 c73 0 133 -1 133 -2 0 -7 -49 -185 -55 -200 -7 -17
10 -18 275 -18 l281 0 38 83 c21 45 43 94 49 110 l12 27 135 0 c87 0 135 -4
135 -10 0 -25 -76 -212 -123 -304 -255 -499 -714 -864 -1264 -1006 -143 -36
-305 -60 -420 -60 l-83 0 0 -605 0 -604 -92 56 c-153 92 -488 318 -508 343 -3
3 -21 17 -40 30 -52 37 -265 215 -350 294 -187 173 -390 392 -531 571 -312
397 -536 839 -634 1250 -59 248 -58 231 -62 1241 -3 757 -2 933 9 941 7 6 78
29 158 53 80 23 202 60 273 81 243 75 383 117 507 154 69 20 188 56 265 80 77
23 196 59 265 80 69 20 159 48 200 61 41 12 116 35 165 49 161 48 289 87 330
100 22 8 41 14 43 14 1 1 2 -77 2 -173z m191 -186 c648 -66 1201 -417 1528
-971 53 -89 161 -330 161 -358 0 -7 -47 -11 -140 -11 -86 0 -140 4 -140 10 0
5 -21 55 -46 110 l-47 100 -278 0 c-154 0 -279 -2 -279 -5 0 -3 14 -51 30
-107 17 -55 30 -102 30 -105 0 -2 -61 -2 -136 -1 l-137 3 -32 96 c-18 53 -35
101 -39 108 -5 8 -89 11 -287 11 l-279 0 0 -110 0 -110 -45 0 -45 0 0 675 0
675 39 0 c21 0 85 -5 142 -10z m-722 -377 c-119 -126 -223 -273 -298 -421
l-31 -62 -225 0 c-124 0 -225 4 -225 9 0 16 217 217 295 272 133 95 289 174
450 230 44 15 82 28 84 28 2 1 -20 -25 -50 -56z m369 -255 l-3 -223 -192 -3
c-131 -2 -193 1 -193 8 0 6 28 52 61 103 59 88 294 337 319 337 7 0 10 -71 8
-222z m249 -995 c22 -22 43 -68 87 -198 32 -93 62 -176 65 -183 4 -7 19 31 35
85 90 316 93 323 173 323 30 0 50 -7 70 -24 l28 -25 -79 -233 c-105 -309 -108
-316 -151 -333 -48 -21 -94 -19 -133 5 -37 23 -33 16 -113 239 -57 161 -59
167 -59 268 0 102 0 103 24 103 13 0 37 -12 53 -27z m868 19 c26 -18 39 -52
89 -228 30 -104 57 -182 60 -174 3 8 30 85 60 172 30 86 61 169 69 185 20 38
55 53 123 53 84 0 97 -19 173 -237 35 -101 65 -183 66 -183 1 0 26 84 56 188
61 214 72 232 142 232 62 0 101 -31 93 -74 -7 -35 -163 -481 -178 -509 -22
-42 -115 -59 -168 -32 -38 20 -55 55 -125 255 -31 91 -60 169 -64 173 -5 4
-37 -74 -72 -175 -35 -100 -73 -196 -84 -213 -29 -42 -62 -57 -119 -52 -78 7
-90 26 -189 316 -90 263 -92 275 -49 300 20 12 102 14 117 3z"/>
<path d="M1254 3865 c-30 -30 -35 -5 58 -275 94 -277 103 -295 143 -314 44
-21 93 -20 132 4 41 24 42 27 114 232 34 95 65 180 69 188 8 13 9 13 14 0 3
-8 30 -85 60 -171 30 -85 61 -172 69 -192 19 -43 69 -77 115 -77 43 0 98 23
110 47 13 24 182 511 182 524 0 6 -11 21 -25 34 -18 19 -35 25 -70 25 -59 0
-87 -27 -110 -106 -65 -228 -94 -317 -99 -304 -3 8 -30 89 -61 180 -31 90 -61
172 -66 182 -24 45 -130 63 -190 32 -35 -18 -47 -43 -114 -244 -27 -80 -51
-148 -55 -152 -3 -5 -28 72 -55 169 -28 98 -59 191 -70 208 -18 26 -28 30 -73
33 -45 3 -55 -1 -78 -23z"/>
<path d="M1240 3036 c0 -21 73 -203 116 -291 311 -625 956 -1049 1647 -1082
l127 -6 0 691 0 692 -80 0 -80 0 0 -110 0 -110 -265 0 -265 0 -11 28 c-6 15
-20 64 -32 110 l-22 82 -132 0 c-115 0 -133 -2 -133 -16 0 -16 35 -160 46
-188 6 -15 -21 -16 -272 -14 l-279 3 -45 107 -45 107 -137 1 c-76 0 -138 -2
-138 -4z m1045 -544 c64 -144 186 -327 294 -442 28 -30 51 -55 51 -57 0 -1
-39 11 -87 28 -186 65 -377 176 -538 311 -80 67 -215 207 -215 222 0 3 105 6
233 6 l232 -1 30 -67z m685 -178 c0 -193 -3 -244 -12 -238 -75 43 -204 169
-281 273 -37 50 -127 196 -127 206 0 3 95 5 210 5 l210 0 0 -246z"/>
<path d="M3230 2325 c0 -129 4 -235 8 -235 10 0 89 59 159 118 80 68 180 189
268 325 l17 27 -226 0 -226 0 0 -235z"/>
<path d="M3937 2472 c-78 -142 -174 -269 -299 -395 -65 -65 -110 -116 -100
-113 9 3 53 17 97 30 314 95 593 273 795 506 l52 60 -249 0 -248 0 -48 -88z"/>
<path d="M3540 5185 c0 -2 30 -32 66 -67 97 -92 222 -252 295 -377 l64 -110
238 -1 c130 0 237 4 237 9 0 5 -30 40 -67 78 -170 173 -368 305 -588 391 -94
37 -245 85 -245 77z"/>
<path d="M3232 4858 l3 -223 208 -3 c130 -1 207 1 207 7 0 17 -145 203 -210
269 -67 68 -189 172 -202 172 -5 0 -7 -100 -6 -222z"/>
</g>
</svg>
