<?xml version="1.0" standalone="no"?>
<!DOCTYPE svg PUBLIC "-//W3C//DTD SVG 20010904//EN"
 "http://www.w3.org/TR/2001/REC-SVG-20010904/DTD/svg10.dtd">
<svg version="1.0" xmlns="http://www.w3.org/2000/svg"
 width="1280.000000pt" height="1280.000000pt" viewBox="0 0 1280.000000 1280.000000"
 preserveAspectRatio="xMidYMid meet">

<defs>
    <linearGradient id="grad1" x1="0%" y1="0%" x2="100%" y2="0%">
        <stop offset="0%" style="stop-color:#FFFFFF;stop-opacity:1" />
        <stop offset="100%" style="stop-color:#CCCCCC;stop-opacity:1" />
    </linearGradient>
</defs>

<g transform="translate(0.000000,1280.000000) scale(0.100000,-0.100000)"
fill="url(#grad1)" stroke="none">
<path d="M4398 9819 c-228 -24 -501 -130 -736 -286 -110 -73 -296 -254 -391
-380 -149 -198 -242 -390 -297 -609 -62 -251 -59 -154 -59 -2229 0 -2054 -2
-1961 55 -2200 36 -152 69 -242 135 -377 232 -468 678 -823 1164 -928 183 -40
293 -42 2231 -38 1722 4 1872 6 1950 22 174 35 320 85 472 161 446 223 748
603 876 1100 73 282 67 88 67 2290 l0 1980 -22 117 c-104 537 -461 996 -956
1228 -107 50 -272 105 -395 133 -97 21 -97 21 -2057 23 -1078 1 -1994 -2
-2037 -7z m3833 -861 c195 -53 365 -154 514 -303 143 -142 253 -332 297 -510
l22 -90 4 -1570 c3 -1575 0 -1763 -32 -1880 -88 -325 -387 -650 -702 -764
-163 -59 -69 -56 -1939 -56 l-1720 0 -100 27 c-274 72 -478 207 -634 417 -118
160 -191 352 -211 555 -6 70 -10 652 -10 1625 0 1316 2 1529 15 1611 61 375
293 693 630 863 88 44 148 65 250 88 75 17 178 18 1800 16 l1720 -2 96 -27z"/>
<path d="M6270 7650 c-426 -52 -784 -273 -1022 -630 -148 -223 -214 -423 -225
-677 -16 -371 96 -684 345 -971 59 -68 96 -92 139 -92 43 1 69 20 136 100 39
46 82 84 116 103 47 27 64 31 130 30 101 0 144 -21 262 -130 52 -47 108 -92
126 -99 19 -8 68 -14 120 -14 79 0 93 3 138 29 28 16 88 61 135 100 114 95
155 114 250 114 65 1 83 -3 129 -29 31 -17 76 -54 105 -88 92 -108 102 -116
138 -116 53 0 109 45 208 165 130 159 225 356 272 567 20 87 23 131 23 288 0
170 -3 194 -29 295 -53 205 -137 380 -249 520 -221 275 -518 457 -846 519
-103 20 -303 28 -401 16z m340 -446 c169 -35 338 -127 480 -260 92 -87 148
-166 209 -295 60 -125 78 -193 89 -330 20 -239 -30 -370 -157 -408 -91 -27
-153 -6 -236 78 -113 116 -203 91 -330 -90 -87 -123 -160 -159 -296 -146 -92
8 -132 37 -224 159 -92 123 -119 142 -192 141 -59 0 -75 -9 -155 -82 -92 -84
-156 -100 -238 -57 -61 30 -106 91 -121 163 -15 74 -5 315 16 398 75 286 272
524 550 662 174 87 390 111 605 67z"/>
</g>
</svg>
